<svg xmlns="http://www.w3.org/2000/svg" xmlns:xlink="http://www.w3.org/1999/xlink" version="1.1" width="256" height="256" viewBox="0 0 256 256" xml:space="preserve">

<defs>
</defs>
<g style="stroke: none; stroke-width: 0; stroke-dasharray: none; stroke-linecap: butt; stroke-linejoin: miter; stroke-miterlimit: 10; fill: none; fill-rule: nonzero; opacity: 1;" transform="translate(1.4065934065934016 1.4065934065934016) scale(2.81 2.81)" >
	<path d="M 63.173 60.377 h -5.698 c -2.473 0 -4.477 -2.004 -4.477 -4.477 V 43.898 c 0 -2.473 2.004 -4.477 4.477 -4.477 h 5.698 v 2.665 h -5.309 c -1.322 0 -2.394 1.072 -2.394 2.394 v 10.838 c 0 1.322 1.072 2.394 2.394 2.394 h 5.309 V 60.377 z" style="stroke: none; stroke-width: 1; stroke-dasharray: none; stroke-linecap: butt; stroke-linejoin: miter; stroke-miterlimit: 10; fill: rgb(221,99,110); fill-rule: nonzero; opacity: 1;" transform=" matrix(1 0 0 1 0 0) " stroke-linecap="round" />
	<path d="M 85.064 72.448 H 67.609 c -2.45 0 -4.436 -1.986 -4.436 -4.436 V 35.019 c 0 -0.874 0.708 -1.582 1.582 -1.582 h 23.163 c 0.874 0 1.582 0.708 1.582 1.582 v 32.992 C 89.5 70.461 87.514 72.448 85.064 72.448 z" style="stroke: none; stroke-width: 1; stroke-dasharray: none; stroke-linecap: butt; stroke-linejoin: miter; stroke-miterlimit: 10; fill: rgb(221,99,110); fill-rule: nonzero; opacity: 1;" transform=" matrix(1 0 0 1 0 0) " stroke-linecap="round" />
	<path d="M 76.649 69.876 h -4.135 c -0.276 0 -0.5 -0.224 -0.5 -0.5 s 0.224 -0.5 0.5 -0.5 h 4.135 c 0.276 0 0.5 0.224 0.5 0.5 S 76.926 69.876 76.649 69.876 z" style="stroke: none; stroke-width: 1; stroke-dasharray: none; stroke-linecap: butt; stroke-linejoin: miter; stroke-miterlimit: 10; fill: rgb(18,34,46); fill-rule: nonzero; opacity: 1;" transform=" matrix(1 0 0 1 0 0) " stroke-linecap="round" />
	<path d="M 84.003 69.876 H 79.88 c -0.276 0 -0.5 -0.224 -0.5 -0.5 s 0.224 -0.5 0.5 -0.5 h 4.123 c 1.167 0 2.117 -0.95 2.117 -2.117 v -5.558 c 0 -0.276 0.224 -0.5 0.5 -0.5 s 0.5 0.224 0.5 0.5 v 5.558 C 87.12 68.478 85.722 69.876 84.003 69.876 z" style="stroke: none; stroke-width: 1; stroke-dasharray: none; stroke-linecap: butt; stroke-linejoin: miter; stroke-miterlimit: 10; fill: rgb(18,34,46); fill-rule: nonzero; opacity: 1;" transform=" matrix(1 0 0 1 0 0) " stroke-linecap="round" />
	<path d="M 65.763 40.93 c -0.276 0 -0.5 -0.224 -0.5 -0.5 v -3.115 c 0 -0.812 0.661 -1.473 1.474 -1.473 h 5.767 c 0.276 0 0.5 0.224 0.5 0.5 s -0.224 0.5 -0.5 0.5 h -5.767 c -0.261 0 -0.474 0.212 -0.474 0.473 v 3.115 C 66.263 40.706 66.039 40.93 65.763 40.93 z" style="stroke: none; stroke-width: 1; stroke-dasharray: none; stroke-linecap: butt; stroke-linejoin: miter; stroke-miterlimit: 10; fill: rgb(18,34,46); fill-rule: nonzero; opacity: 1;" transform=" matrix(1 0 0 1 0 0) " stroke-linecap="round" />
	<polygon points="81.9,51.55 77.28,51.55 77.28,43.09 70.31,54.25 74.93,54.25 74.93,62.72 " style="stroke: none; stroke-width: 1; stroke-dasharray: none; stroke-linecap: butt; stroke-linejoin: miter; stroke-miterlimit: 10; fill: rgb(255,224,125); fill-rule: nonzero; opacity: 1;" transform="  matrix(1 0 0 1 0 0) "/>
	<path d="M 74.932 63.216 c -0.046 0 -0.092 -0.006 -0.138 -0.02 c -0.215 -0.062 -0.362 -0.258 -0.362 -0.48 v -7.969 h -4.119 c -0.182 0 -0.35 -0.099 -0.438 -0.258 c -0.088 -0.158 -0.083 -0.353 0.014 -0.507 l 6.972 -11.161 c 0.117 -0.19 0.347 -0.278 0.562 -0.216 c 0.215 0.062 0.362 0.257 0.362 0.48 v 7.969 h 4.119 c 0.182 0 0.35 0.099 0.438 0.258 c 0.088 0.158 0.083 0.353 -0.014 0.507 L 75.355 62.98 C 75.263 63.13 75.101 63.216 74.932 63.216 z M 71.214 53.747 h 3.718 c 0.276 0 0.5 0.224 0.5 0.5 v 6.725 l 5.57 -8.917 h -3.718 c -0.276 0 -0.5 -0.224 -0.5 -0.5 V 44.83 L 71.214 53.747 z" style="stroke: none; stroke-width: 1; stroke-dasharray: none; stroke-linecap: butt; stroke-linejoin: miter; stroke-miterlimit: 10; fill: rgb(18,34,46); fill-rule: nonzero; opacity: 1;" transform=" matrix(1 0 0 1 0 0) " stroke-linecap="round" />
	<path d="M 54.309 72.434 c 1.973 0 3.573 -1.6 3.573 -3.573 c 0 -1.973 -1.6 -3.573 -3.573 -3.573 h 1.635 c 1.973 0 3.573 -1.6 3.573 -3.573 v 0 c 0 -1.973 -1.6 -3.573 -3.573 -3.573 H 55.89 c 1.973 0 3.573 -1.6 3.573 -3.573 s -1.6 -3.573 -3.573 -3.573 h -0.774 c 1.917 0 3.471 -1.554 3.471 -3.471 s -1.554 -3.471 -3.471 -3.471 l -2.586 0 c 0.028 -0.178 0.043 -0.361 0.043 -0.547 v 0 c 0 -1.917 -1.554 -3.471 -3.471 -3.471 l -6.469 0 h -3.346 c -3.943 0 -7.439 3.122 -9.614 7.935 l -29.173 0 l 0 19.618 l 28.891 0 l 0 0 c 2.175 2.946 5.671 4.856 9.614 4.856 L 54.309 72.434 z" style="stroke: none; stroke-width: 1; stroke-dasharray: none; stroke-linecap: butt; stroke-linejoin: miter; stroke-miterlimit: 10; fill: rgb(243,179,113); fill-rule: nonzero; opacity: 1;" transform=" matrix(1 0 0 1 0 0) " stroke-linecap="round" />
	<rect x="2.61" y="45.86" rx="0" ry="0" width="19.62" height="23.85" style="stroke: none; stroke-width: 1; stroke-dasharray: none; stroke-linecap: butt; stroke-linejoin: miter; stroke-miterlimit: 10; fill: rgb(62,108,144); fill-rule: nonzero; opacity: 1;" transform=" matrix(-3.267949e-7 1 -1 -3.267949e-7 70.2054 45.3588) "/>
	<rect x="18.76" y="47.97" rx="0" ry="0" width="5.59" height="19.62" style="stroke: none; stroke-width: 1; stroke-dasharray: none; stroke-linecap: butt; stroke-linejoin: miter; stroke-miterlimit: 10; fill: rgb(221,218,236); fill-rule: nonzero; opacity: 1;" transform=" matrix(1 0 0 1 0 0) "/>
	<path d="M 87.918 32.938 H 64.755 c -1.148 0 -2.082 0.934 -2.082 2.082 v 3.901 h -5.197 c -2.135 0 -3.945 1.358 -4.651 3.251 c -0.552 -1.53 -2.004 -2.633 -3.722 -2.633 h -9.815 c -3.9 0 -7.597 2.959 -9.935 7.935 h -4.506 h -6.588 H 0.5 c -0.276 0 -0.5 0.224 -0.5 0.5 v 19.618 c 0 0.276 0.224 0.5 0.5 0.5 l 28.641 0.001 c 2.348 3.045 6.015 4.855 9.863 4.855 c 0 0 0 0 0 0 v 0 l 15.305 -0.013 c 2.245 0 4.072 -1.827 4.072 -4.073 c 0 -1.29 -0.615 -2.428 -1.554 -3.175 c 1.821 -0.406 3.189 -2.029 3.189 -3.97 c 0 -0.288 -0.032 -0.568 -0.089 -0.839 h 2.745 v 7.135 c 0 2.722 2.215 4.936 4.937 4.936 h 17.455 c 2.722 0 4.936 -2.214 4.936 -4.936 V 35.019 C 90 33.871 89.066 32.938 87.918 32.938 z M 57.476 39.92 h 5.197 v 1.666 h -4.809 c -1.26 0 -2.347 0.809 -2.737 1.971 c -0.004 0 -0.007 -0.001 -0.011 -0.001 h -1.584 C 53.709 41.525 55.399 39.92 57.476 39.92 z M 57.831 58.128 c 0.011 -0.006 0.022 -0.012 0.033 -0.018 v 0.036 C 57.853 58.14 57.842 58.134 57.831 58.128 z M 62.673 42.586 v 14.626 h -3.709 c 0.614 -0.713 0.999 -1.629 0.999 -2.642 c 0 -1.722 -1.077 -3.189 -2.59 -3.784 c 1.033 -0.718 1.714 -1.909 1.714 -3.26 c 0 -1.832 -1.255 -3.364 -2.946 -3.819 c 0.299 -0.668 0.962 -1.121 1.723 -1.121 H 62.673 z M 23.847 48.473 v 18.618 h -4.588 V 48.473 H 23.847 z M 1 48.473 h 17.258 v 18.618 H 1 V 48.473 z M 55.944 64.789 H 54.31 h -8.93 h -0.948 v 1 h 0.948 h 8.93 c 1.694 0 3.072 1.378 3.072 3.072 s -1.378 3.073 -3.072 3.073 l -15.305 0.013 c -3.617 0 -7.061 -1.739 -9.211 -4.653 c -0.094 -0.128 -0.244 -0.203 -0.402 -0.203 h -4.544 V 48.473 h 4.827 c 0.196 0 0.375 -0.115 0.456 -0.294 c 2.163 -4.784 5.586 -7.641 9.159 -7.641 h 9.815 c 1.638 0 2.971 1.333 2.971 2.971 c 0 0.016 -0.003 0.031 -0.004 0.047 h -5.535 v 1 h 8.582 c 1.638 0 2.971 1.333 2.971 2.97 s -1.333 2.971 -2.971 2.971 h -6.188 h -2.395 v 1 h 2.395 h 6.188 h 0.773 c 1.694 0 3.073 1.379 3.073 3.073 s -1.379 3.072 -3.073 3.072 h -8.73 H 45.38 v 1 h 1.779 h 8.73 h 0.055 c 1.694 0 3.072 1.379 3.072 3.073 S 57.639 64.789 55.944 64.789 z M 59.558 59.877 c -0.356 -0.696 -0.9 -1.272 -1.572 -1.665 h 4.688 v 1.665 H 59.558 z M 89 68.012 c 0 2.17 -1.766 3.936 -3.936 3.936 H 67.609 c -2.171 0 -3.937 -1.766 -3.937 -3.936 V 35.019 c 0 -0.596 0.485 -1.082 1.082 -1.082 h 23.163 c 0.597 0 1.082 0.485 1.082 1.082 V 68.012 z" style="stroke: none; stroke-width: 1; stroke-dasharray: none; stroke-linecap: butt; stroke-linejoin: miter; stroke-miterlimit: 10; fill: rgb(18,34,46); fill-rule: nonzero; opacity: 1;" transform=" matrix(1 0 0 1 0 0) " stroke-linecap="round" />
	<path d="M 15.29 62.611 c -0.276 0 -0.5 -0.224 -0.5 -0.5 v -2.503 c 0 -0.276 0.224 -0.5 0.5 -0.5 s 0.5 0.224 0.5 0.5 v 2.503 C 15.79 62.388 15.566 62.611 15.29 62.611 z" style="stroke: none; stroke-width: 1; stroke-dasharray: none; stroke-linecap: butt; stroke-linejoin: miter; stroke-miterlimit: 10; fill: rgb(18,34,46); fill-rule: nonzero; opacity: 1;" transform=" matrix(1 0 0 1 0 0) " stroke-linecap="round" />
	<path d="M 15.29 57.276 c -0.276 0 -0.5 -0.224 -0.5 -0.5 v -4.835 H 8.207 c -0.276 0 -0.5 -0.224 -0.5 -0.5 s 0.224 -0.5 0.5 -0.5 h 7.083 c 0.276 0 0.5 0.224 0.5 0.5 v 5.335 C 15.79 57.053 15.566 57.276 15.29 57.276 z" style="stroke: none; stroke-width: 1; stroke-dasharray: none; stroke-linecap: butt; stroke-linejoin: miter; stroke-miterlimit: 10; fill: rgb(18,34,46); fill-rule: nonzero; opacity: 1;" transform=" matrix(1 0 0 1 0 0) " stroke-linecap="round" />
	<path d="M 76.337 30.693 c -0.085 0 -0.171 -0.021 -0.25 -0.067 c -0.239 -0.138 -0.321 -0.443 -0.184 -0.683 c 0.939 -1.63 0.937 -3.303 -0.01 -5.114 c -1.266 -2.171 -1.274 -4.553 -0.016 -7.475 c 0.108 -0.254 0.405 -0.372 0.657 -0.261 c 0.253 0.109 0.37 0.403 0.261 0.657 c -1.122 2.605 -1.131 4.702 -0.027 6.596 c 1.112 2.129 1.109 4.173 0.002 6.097 C 76.678 30.604 76.51 30.693 76.337 30.693 z" style="stroke: none; stroke-width: 1; stroke-dasharray: none; stroke-linecap: butt; stroke-linejoin: miter; stroke-miterlimit: 10; fill: rgb(18,34,46); fill-rule: nonzero; opacity: 1;" transform=" matrix(1 0 0 1 0 0) " stroke-linecap="round" />
	<path d="M 80.66 30.693 c -0.085 0 -0.171 -0.021 -0.249 -0.067 c -0.24 -0.138 -0.322 -0.443 -0.185 -0.683 c 0.728 -1.264 0.725 -2.562 -0.01 -3.967 c -1.021 -1.752 -1.03 -3.675 -0.016 -6.031 c 0.108 -0.254 0.404 -0.37 0.656 -0.262 c 0.254 0.109 0.371 0.404 0.262 0.657 c -0.878 2.04 -0.887 3.677 -0.027 5.152 c 0.904 1.73 0.9 3.388 0.002 4.95 C 81.001 30.604 80.833 30.693 80.66 30.693 z" style="stroke: none; stroke-width: 1; stroke-dasharray: none; stroke-linecap: butt; stroke-linejoin: miter; stroke-miterlimit: 10; fill: rgb(18,34,46); fill-rule: nonzero; opacity: 1;" transform=" matrix(1 0 0 1 0 0) " stroke-linecap="round" />
	<path d="M 71.988 30.693 c -0.085 0 -0.171 -0.021 -0.25 -0.067 c -0.239 -0.138 -0.321 -0.443 -0.184 -0.683 c 0.729 -1.264 0.726 -2.561 -0.01 -3.967 c -1.021 -1.752 -1.029 -3.675 -0.016 -6.031 c 0.108 -0.254 0.402 -0.37 0.656 -0.262 c 0.254 0.109 0.371 0.403 0.262 0.657 c -0.877 2.04 -0.886 3.677 -0.027 5.152 c 0.905 1.729 0.901 3.388 0.002 4.949 C 72.329 30.604 72.161 30.693 71.988 30.693 z" style="stroke: none; stroke-width: 1; stroke-dasharray: none; stroke-linecap: butt; stroke-linejoin: miter; stroke-miterlimit: 10; fill: rgb(18,34,46); fill-rule: nonzero; opacity: 1;" transform=" matrix(1 0 0 1 0 0) " stroke-linecap="round" />
</g>
</svg>